<?xml version="1.0" standalone="no"?>
<!DOCTYPE svg PUBLIC "-//W3C//DTD SVG 20010904//EN"
 "http://www.w3.org/TR/2001/REC-SVG-20010904/DTD/svg10.dtd">
<svg version="1.0" xmlns="http://www.w3.org/2000/svg"
 width="2000.000000pt" height="2000.000000pt" viewBox="0 0 2000.000000 2000.000000"
 preserveAspectRatio="xMidYMid meet">

<g transform="translate(0.000000,2000.000000) scale(0.100000,-0.100000)"
fill="#000000" stroke="none">
<path d="M9675 17023 c-433 -25 -795 -72 -1145 -148 -187 -40 -199 -45 -247
-88 -21 -19 -54 -38 -73 -42 -69 -14 -308 -85 -455 -136 -128 -44 -162 -52
-230 -53 -75 -1 -90 -5 -245 -71 -212 -89 -590 -277 -795 -395 -792 -455
-1522 -1100 -2084 -1839 -581 -766 -1003 -1651 -1230 -2585 -270 -1107 -266
-2272 13 -3382 210 -838 578 -1638 1075 -2339 190 -267 301 -402 355 -426 54
-25 136 -24 184 0 38 20 332 310 332 328 0 5 -14 29 -31 53 l-31 43 -117 -115
c-182 -178 -217 -208 -247 -208 -35 0 -79 45 -215 225 -755 998 -1221 2179
-1354 3435 -48 460 -48 964 0 1445 236 2337 1693 4426 3818 5471 240 118 517
234 559 234 59 0 97 -58 74 -114 -12 -29 -29 -39 -197 -110 -805 -344 -1480
-794 -2093 -1396 -570 -560 -973 -1113 -1325 -1820 -384 -771 -602 -1563 -683
-2480 -19 -218 -16 -849 5 -1080 67 -714 226 -1369 492 -2018 89 -214 302
-638 430 -852 147 -244 334 -519 463 -678 l35 -44 122 122 123 123 -36 47 -37
46 -42 -35 c-44 -36 -74 -48 -70 -28 1 7 -4 11 -11 9 -8 -1 -11 2 -8 7 3 5 -1
14 -9 21 -12 10 -15 10 -16 -1 0 -8 -4 -4 -9 8 -6 13 -18 23 -30 23 -11 0 -20
5 -20 10 0 6 -7 10 -15 10 -8 0 -19 9 -25 20 -6 11 -15 18 -21 15 -5 -4 -8 -1
-7 7 2 7 -2 12 -8 11 -22 -4 -64 46 -146 172 -602 920 -960 2007 -1039 3149
-15 223 -6 847 15 1056 73 700 234 1335 497 1961 73 172 271 566 369 734 392
667 892 1257 1490 1756 509 425 1102 783 1700 1026 148 61 188 86 215 137 11
19 22 33 26 30 4 -2 10 0 14 6 4 6 11 8 16 5 5 -4 9 -1 9 6 0 7 3 9 7 6 3 -4
12 -2 20 4 7 6 13 8 13 4 0 -4 7 -2 15 5 8 7 15 9 15 5 0 -4 7 -2 15 5 8 7 15
9 15 5 0 -4 6 -3 13 2 12 10 96 40 133 47 10 2 30 9 44 14 14 5 28 10 33 11 4
0 8 1 10 2 1 0 11 3 22 5 27 6 49 12 55 14 3 1 9 2 14 1 4 -1 13 3 20 8 11 9
48 20 91 25 11 1 31 -3 45 -9 55 -26 89 -24 305 20 713 146 1402 178 2100 99
1215 -138 2356 -604 3325 -1359 132 -103 155 -115 225 -115 164 0 262 167 182
312 -30 55 -283 252 -572 445 -1167 780 -2536 1191 -3935 1181 -135 -1 -267
-3 -295 -5z m777 -133 c1392 -95 2718 -600 3798 -1448 116 -91 130 -106 130
-144 0 -35 -48 -88 -80 -88 -30 0 -48 11 -173 109 -870 679 -1909 1134 -3012
1320 -332 56 -606 80 -986 88 -528 10 -1020 -35 -1504 -138 -203 -44 -215 -45
-246 -20 -48 37 -46 103 4 136 29 19 338 84 567 119 154 24 499 61 635 69 149
8 728 6 867 -3z"/>
<path d="M15255 14501 c-16 -4 -41 -13 -55 -20 -25 -13 -350 -330 -350 -342 0
-3 10 -17 23 -31 12 -14 27 -34 34 -44 10 -17 26 -4 170 137 164 162 185 179
227 179 33 0 63 -32 188 -197 756 -997 1210 -2118 1362 -3358 35 -283 41 -405
41 -835 -1 -465 -8 -587 -61 -965 -271 -1941 -1377 -3690 -3024 -4780 -919
-609 -1952 -983 -3045 -1104 -466 -52 -980 -55 -1440 -10 -1264 123 -2462 591
-3475 1355 -229 173 -250 197 -218 257 38 72 83 65 209 -34 346 -271 700 -498
1084 -695 1762 -904 3825 -987 5660 -229 192 79 592 276 765 375 507 295 936
621 1359 1035 545 534 962 1102 1301 1775 389 772 608 1541 697 2445 24 255
25 914 0 1170 -81 830 -278 1564 -614 2280 -182 388 -443 822 -694 1155 -52
69 -97 129 -101 135 -8 11 -258 -232 -258 -250 1 -5 16 -28 36 -49 l34 -40 28
26 c15 14 37 32 50 40 22 15 25 14 55 -13 17 -16 35 -29 40 -29 5 0 14 -6 21
-12 8 -7 24 -20 36 -28 12 -8 34 -25 48 -38 15 -13 37 -27 49 -32 25 -11 103
-123 230 -335 987 -1643 1208 -3650 602 -5478 -94 -284 -200 -542 -344 -832
-198 -401 -391 -717 -638 -1044 -1168 -1549 -2903 -2492 -4839 -2630 -186 -14
-699 -14 -888 -1 -1108 78 -2142 413 -3074 997 -165 103 -373 249 -544 382
-163 126 -196 140 -281 121 -149 -33 -216 -217 -121 -331 50 -62 338 -279 590
-446 1337 -886 2969 -1288 4565 -1127 1421 143 2737 698 3825 1612 933 783
1648 1797 2073 2942 273 735 416 1496 434 2305 30 1407 -372 2809 -1140 3978
-170 259 -345 495 -440 594 -52 55 -128 80 -192 64z"/>
<path d="M14038 13333 c-465 -467 -476 -479 -488 -530 -14 -61 -7 -102 26
-160 55 -95 188 -128 285 -71 26 15 230 213 487 472 l441 446 -31 45 c-18 25
-37 45 -42 45 -6 0 -216 -205 -466 -455 -440 -439 -457 -455 -493 -455 -49 0
-87 36 -87 82 0 29 28 61 277 313 153 154 362 366 466 470 l188 191 -31 42
c-16 23 -36 42 -43 42 -7 0 -227 -215 -489 -477z"/>
<path d="M6153 7435 c-40 -20 -151 -127 -497 -476 -245 -247 -446 -453 -446
-459 0 -5 10 -18 22 -30 12 -11 18 -20 12 -20 -5 0 -1 -5 9 -11 9 -5 17 -18
17 -27 0 -9 207 190 468 451 451 451 469 467 505 467 49 0 87 -36 87 -80 0
-28 -52 -84 -467 -506 -258 -260 -469 -478 -471 -483 -4 -12 57 -81 72 -81 6
0 228 217 493 483 503 504 503 503 503 586 0 50 -26 107 -66 148 -68 67 -154
81 -241 38z"/>
</g>
</svg>
